<svg width="124" height="34" viewBox="0 0 124 34" fill="none" xmlns="http://www.w3.org/2000/svg">
<path d="M0 26.5L6.51 6.85H10.05L16.56 26.5H13.32L10.14 15.82C9.8 14.74 9.48 13.66 9.18 12.58C8.88 11.48 8.58 10.38 8.28 9.28H8.16C7.88 10.38 7.58 11.48 7.26 12.58C6.96 13.66 6.65 14.74 6.33 15.82L3.12 26.5H0ZM3.66 20.89V18.49H12.81V20.89H3.66ZM23.6027 33.1C22.4227 33.1 21.3727 32.95 20.4527 32.65C19.5327 32.37 18.8127 31.94 18.2927 31.36C17.7727 30.8 17.5127 30.09 17.5127 29.23C17.5127 28.61 17.7027 28.02 18.0827 27.46C18.4627 26.92 18.9827 26.44 19.6427 26.02V25.9C19.2827 25.64 18.9727 25.32 18.7127 24.94C18.4527 24.54 18.3227 24.05 18.3227 23.47C18.3227 22.87 18.4927 22.34 18.8327 21.88C19.1727 21.4 19.5427 21.02 19.9427 20.74V20.62C19.4627 20.24 19.0227 19.71 18.6227 19.03C18.2227 18.35 18.0227 17.58 18.0227 16.72C18.0227 15.62 18.2827 14.68 18.8027 13.9C19.3427 13.12 20.0327 12.52 20.8727 12.1C21.7327 11.68 22.6727 11.47 23.6927 11.47C24.0927 11.47 24.4727 11.51 24.8327 11.59C25.2127 11.65 25.5427 11.73 25.8227 11.83H31.0127V14.11H28.1927C28.4727 14.41 28.7027 14.8 28.8827 15.28C29.0827 15.74 29.1827 16.25 29.1827 16.81C29.1827 17.87 28.9327 18.78 28.4327 19.54C27.9527 20.28 27.2927 20.85 26.4527 21.25C25.6327 21.65 24.7127 21.85 23.6927 21.85C23.3527 21.85 23.0027 21.81 22.6427 21.73C22.3027 21.65 21.9627 21.54 21.6227 21.4C21.3827 21.6 21.1827 21.82 21.0227 22.06C20.8827 22.3 20.8127 22.6 20.8127 22.96C20.8127 23.4 20.9927 23.75 21.3527 24.01C21.7127 24.27 22.3527 24.4 23.2727 24.4H25.9727C27.7127 24.4 29.0227 24.69 29.9027 25.27C30.8027 25.83 31.2527 26.73 31.2527 27.97C31.2527 28.91 30.9327 29.77 30.2927 30.55C29.6727 31.33 28.7927 31.95 27.6527 32.41C26.5127 32.87 25.1627 33.1 23.6027 33.1ZM24.0527 31.09C24.9127 31.09 25.6527 30.97 26.2727 30.73C26.9127 30.49 27.4127 30.16 27.7727 29.74C28.1327 29.34 28.3127 28.91 28.3127 28.45C28.3127 27.83 28.0727 27.4 27.5927 27.16C27.1327 26.94 26.4627 26.83 25.5827 26.83H23.3327C22.9927 26.83 22.6527 26.81 22.3127 26.77C21.9927 26.73 21.6827 26.68 21.3827 26.62C20.9227 26.94 20.5927 27.28 20.3927 27.64C20.1927 28.02 20.0927 28.4 20.0927 28.78C20.0927 29.5 20.4427 30.06 21.1427 30.46C21.8627 30.88 22.8327 31.09 24.0527 31.09ZM23.6927 19.9C24.2127 19.9 24.6827 19.78 25.1027 19.54C25.5227 19.28 25.8527 18.91 26.0927 18.43C26.3527 17.95 26.4827 17.38 26.4827 16.72C26.4827 16.06 26.3527 15.5 26.0927 15.04C25.8527 14.58 25.5227 14.23 25.1027 13.99C24.6827 13.73 24.2127 13.6 23.6927 13.6C22.9127 13.6 22.2527 13.87 21.7127 14.41C21.1727 14.95 20.9027 15.72 20.9027 16.72C20.9027 17.38 21.0227 17.95 21.2627 18.43C21.5227 18.91 21.8627 19.28 22.2827 19.54C22.7027 19.78 23.1727 19.9 23.6927 19.9ZM33.6436 26.5V11.83H36.1336L36.3736 14.47H36.4636C36.9836 13.53 37.6036 12.8 38.3236 12.28C39.0636 11.74 39.8336 11.47 40.6336 11.47C40.9736 11.47 41.2736 11.5 41.5336 11.56C41.7936 11.6 42.0336 11.67 42.2536 11.77L41.7136 14.41C41.4536 14.33 41.2136 14.27 40.9936 14.23C40.7936 14.19 40.5436 14.17 40.2436 14.17C39.6436 14.17 39.0136 14.41 38.3536 14.89C37.6936 15.35 37.1336 16.17 36.6736 17.35V26.5H33.6436ZM50.0927 26.86C48.8727 26.86 47.7427 26.56 46.7027 25.96C45.6627 25.36 44.8127 24.49 44.1527 23.35C43.5127 22.19 43.1927 20.8 43.1927 19.18C43.1927 17.56 43.5127 16.18 44.1527 15.04C44.8127 13.88 45.6627 13 46.7027 12.4C47.7427 11.78 48.8727 11.47 50.0927 11.47C51.2927 11.47 52.4127 11.78 53.4527 12.4C54.5127 13 55.3627 13.88 56.0027 15.04C56.6627 16.18 56.9927 17.56 56.9927 19.18C56.9927 20.8 56.6627 22.19 56.0027 23.35C55.3627 24.49 54.5127 25.36 53.4527 25.96C52.4127 26.56 51.2927 26.86 50.0927 26.86ZM50.0927 24.37C50.8727 24.37 51.5427 24.16 52.1027 23.74C52.6827 23.3 53.1227 22.69 53.4227 21.91C53.7227 21.13 53.8727 20.22 53.8727 19.18C53.8727 18.14 53.7227 17.23 53.4227 16.45C53.1227 15.65 52.6827 15.04 52.1027 14.62C51.5427 14.18 50.8727 13.96 50.0927 13.96C49.3127 13.96 48.6427 14.18 48.0827 14.62C47.5227 15.04 47.0827 15.65 46.7627 16.45C46.4627 17.23 46.3127 18.14 46.3127 19.18C46.3127 20.22 46.4627 21.13 46.7627 21.91C47.0827 22.69 47.5227 23.3 48.0827 23.74C48.6427 24.16 49.3127 24.37 50.0927 24.37ZM60.5597 26.5V6.85H64.0997L67.6997 16.84C67.9197 17.48 68.1397 18.14 68.3597 18.82C68.5797 19.48 68.7997 20.14 69.0197 20.8H69.1397C69.3597 20.14 69.5697 19.48 69.7697 18.82C69.9897 18.14 70.2097 17.48 70.4297 16.84L73.9697 6.85H77.5097V26.5H74.6897V16.72C74.6897 16.12 74.7097 15.47 74.7497 14.77C74.8097 14.05 74.8697 13.33 74.9297 12.61C74.9897 11.89 75.0397 11.24 75.0797 10.66H74.9597L73.3997 15.19L69.9497 24.58H68.0597L64.6097 15.19L63.0497 10.66H62.9297C62.9697 11.24 63.0197 11.89 63.0797 12.61C63.1397 13.33 63.1897 14.05 63.2297 14.77C63.2897 15.47 63.3197 16.12 63.3197 16.72V26.5H60.5597ZM85.5888 26.86C84.7488 26.86 83.9988 26.69 83.3388 26.35C82.6988 25.99 82.1888 25.5 81.8088 24.88C81.4488 24.24 81.2688 23.49 81.2688 22.63C81.2688 21.05 81.9688 19.83 83.3688 18.97C84.7688 18.11 86.9988 17.51 90.0588 17.17C90.0588 16.61 89.9688 16.08 89.7888 15.58C89.6288 15.08 89.3388 14.68 88.9188 14.38C88.5188 14.08 87.9588 13.93 87.2388 13.93C86.4588 13.93 85.7088 14.08 84.9888 14.38C84.2888 14.68 83.6288 15.03 83.0088 15.43L81.8688 13.39C82.3688 13.07 82.9288 12.77 83.5488 12.49C84.1688 12.19 84.8288 11.95 85.5288 11.77C86.2488 11.57 86.9988 11.47 87.7788 11.47C88.9788 11.47 89.9688 11.72 90.7488 12.22C91.5488 12.72 92.1388 13.43 92.5188 14.35C92.8988 15.27 93.0888 16.38 93.0888 17.68V26.5H90.5988L90.3588 24.82H90.2688C89.6088 25.38 88.8888 25.86 88.1088 26.26C87.3288 26.66 86.4888 26.86 85.5888 26.86ZM86.5188 24.46C87.1588 24.46 87.7588 24.31 88.3188 24.01C88.8788 23.71 89.4588 23.28 90.0588 22.72V19.09C88.5988 19.27 87.4388 19.51 86.5788 19.81C85.7388 20.11 85.1288 20.48 84.7488 20.92C84.3888 21.36 84.2088 21.85 84.2088 22.39C84.2088 23.11 84.4288 23.64 84.8688 23.98C85.3088 24.3 85.8588 24.46 86.5188 24.46ZM102.051 26.86C100.411 26.86 99.2611 26.39 98.6011 25.45C97.9411 24.49 97.6111 23.25 97.6111 21.73V14.26H95.4811V11.98L97.7611 11.83L98.1211 7.78H100.641V11.83H104.481V14.26H100.641V21.76C100.641 22.62 100.811 23.28 101.151 23.74C101.491 24.2 102.041 24.43 102.801 24.43C103.061 24.43 103.331 24.4 103.611 24.34C103.911 24.26 104.171 24.17 104.391 24.07L104.931 26.32C104.531 26.46 104.081 26.58 103.581 26.68C103.081 26.8 102.571 26.86 102.051 26.86Z" fill="#435941"/>
</svg>
